<svg xmlns="http://www.w3.org/2000/svg" viewBox="0 0 400 300" width="400" height="300" fill="none" stroke-linecap="round" stroke-linejoin="round" font-family="Inter, system-ui, sans-serif">
  <defs>
    <radialGradient id="cp-glow" cx="50%" cy="55%" r="50%">
      <stop offset="0%" stop-color="#005cab" stop-opacity="0.10"></stop>
      <stop offset="62%" stop-color="#005cab" stop-opacity="0"></stop>
    </radialGradient>
  </defs>
  <rect width="400" height="300" fill="url(#cp-glow)"></rect>

  
  <g transform="translate(200 170)">
    
    <g transform="translate(-12 36)">
      <polygon points="-100,0 0,-40 100,0 0,40" fill="#eeeeee" stroke="#c0c7d6" stroke-width="1"></polygon>
      <text x="-88" y="4" font-family="IBM Plex Mono, monospace" font-size="8" fill="#707785">seq:0001</text>
    </g>
    
    <g transform="translate(-8 12)">
      <polygon points="-100,0 0,-40 100,0 0,40" fill="#ffffff" stroke="#c0c7d6" stroke-width="1"></polygon>
      <text x="-88" y="4" font-family="IBM Plex Mono, monospace" font-size="8" fill="#707785">seq:0002</text>
    </g>
    
    <g transform="translate(-4 -12)">
      <polygon points="-100,0 0,-40 100,0 0,40" fill="#ffffff" stroke="#005cab" stroke-width="1.25"></polygon>
      <text x="-88" y="4" font-family="IBM Plex Mono, monospace" font-size="8" fill="#005cab" font-weight="700">seq:0003</text>
    </g>
    
    <g transform="translate(0 -36)">
      <polygon points="-100,0 0,-40 100,0 0,40" fill="#ffffff" stroke="#0075d6" stroke-width="2"></polygon>
      
      <g transform="translate(70 -4)">
        <circle r="10" fill="#0075d6"></circle>
        <path d="M -4 0 L -1 3 L 5 -3" stroke="#ffffff" stroke-width="2" fill="none"></path>
      </g>
      <text x="-88" y="4" font-family="IBM Plex Mono, monospace" font-size="9" fill="#1b1b1b" font-weight="700">seq:0004 · committed</text>
    </g>
  </g>

  
  <g transform="translate(80 100)">
    <line x1="0" y1="0" x2="0" y2="60" stroke="#0075d6" stroke-width="1.5" stroke-dasharray="3 4"></line>
    <path d="M -4 56 L 0 60 L 4 56" stroke="#0075d6" stroke-width="1.5"></path>
    <text x="0" y="-8" text-anchor="middle" font-size="9" font-weight="700" letter-spacing="1" fill="#404753">APPEND</text>
  </g>

  
  <g transform="translate(320 180)">
    <text x="0" y="-38" font-size="9" font-weight="900" letter-spacing="2" fill="#707785">JOURNAL</text>
    <g font-family="IBM Plex Mono, monospace" font-size="9">
      <text x="0" y="-20" fill="#404753">events: 4</text>
      <text x="0" y="-6" fill="#404753">replay: ok</text>
      <text x="0" y="8" fill="#418400" font-weight="700">hash: 9a2f…</text>
    </g>
  </g>

  <text x="40" y="40" font-size="10" font-weight="900" letter-spacing="2" fill="#707785">STATE CHECKPOINTING</text>
</svg>