<svg xmlns="http://www.w3.org/2000/svg" viewBox="0 0 400 300" width="400" height="300" fill="none" stroke-linecap="round" stroke-linejoin="round" font-family="Inter, system-ui, sans-serif">
  <defs>
    <radialGradient id="or-glow" cx="50%" cy="45%" r="55%">
      <stop offset="0%" stop-color="#005cab" stop-opacity="0.10"></stop>
      <stop offset="62%" stop-color="#005cab" stop-opacity="0"></stop>
    </radialGradient>
  </defs>
  <rect width="400" height="300" fill="url(#or-glow)"></rect>

  
  <g stroke="#c0c7d6" stroke-width="1.25" fill="none">
    <path d="M 84 150 L 160 90"></path>
    <path d="M 84 150 L 160 150"></path>
    <path d="M 84 150 L 160 210"></path>
    <path d="M 200 90 L 276 150"></path>
    <path d="M 200 150 L 276 150"></path>
    <path d="M 200 210 L 276 150"></path>
    <path d="M 316 150 L 360 150"></path>
  </g>

  
  <g stroke="#0075d6" stroke-width="2" fill="none">
    <path d="M 84 150 L 160 150"></path>
    <path d="M 200 150 L 276 150"></path>
    <path d="M 316 150 L 360 150"></path>
  </g>

  
  <g transform="translate(64 150)">
    <rect x="-18" y="-18" width="36" height="36" rx="4" fill="#1b1b1b"></rect>
    <polygon points="-5,-6 6,0 -5,6" fill="#ffffff"></polygon>
  </g>

  
  <g>
    <circle cx="180" cy="90" r="16" fill="#ffffff" stroke="#1b1b1b" stroke-width="1.5"></circle>
    <text x="180" y="94" text-anchor="middle" font-size="10" font-weight="700" fill="#1b1b1b">A</text>
  </g>
  <g>
    
    <circle cx="180" cy="150" r="16" fill="#0075d6"></circle>
    <circle cx="180" cy="150" r="20" stroke="#0075d6" stroke-opacity="0.2" stroke-width="2"></circle>
    <text x="180" y="154" text-anchor="middle" font-size="10" font-weight="700" fill="#ffffff">B</text>
  </g>
  <g>
    <circle cx="180" cy="210" r="16" fill="#ffffff" stroke="#1b1b1b" stroke-width="1.5"></circle>
    <text x="180" y="214" text-anchor="middle" font-size="10" font-weight="700" fill="#1b1b1b">C</text>
  </g>

  
  <g>
    <circle cx="296" cy="150" r="16" fill="#0075d6"></circle>
    <text x="296" y="154" text-anchor="middle" font-size="10" font-weight="700" fill="#ffffff">⋈</text>
  </g>

  
  <g transform="translate(360 150)">
    <rect x="-6" y="-14" width="28" height="28" rx="14" fill="#ffffff" stroke="#1b1b1b" stroke-width="1.5"></rect>
    <path d="M 2 0 L 6 4 L 14 -4" stroke="#1b1b1b" stroke-width="1.5" fill="none"></path>
  </g>

  
  <text x="64" y="252" text-anchor="middle" font-size="9" font-weight="600" letter-spacing="1" fill="#707785">TRIGGER</text>
  <text x="180" y="252" text-anchor="middle" font-size="9" font-weight="600" letter-spacing="1" fill="#707785">BRANCH</text>
  <text x="296" y="252" text-anchor="middle" font-size="9" font-weight="600" letter-spacing="1" fill="#707785">JOIN</text>
  <text x="368" y="252" text-anchor="middle" font-size="9" font-weight="600" letter-spacing="1" fill="#707785">DONE</text>

  <text x="40" y="40" font-size="10" font-weight="900" letter-spacing="2" fill="#707785">WORKFLOW ORCHESTRATION</text>
</svg>